<svg xmlns="http://www.w3.org/2000/svg" xmlns:xlink="http://www.w3.org/1999/xlink" width="1080" zoomAndPan="magnify" viewBox="0 0 810 809.999993" height="1080" preserveAspectRatio="xMidYMid meet" version="1.0"><path fill="#000000" d="M 606.855469 0 L 202.5 0 C 91.285156 0 0 91.285156 0 203.144531 L 0 607.5 C 0 718.714844 91.285156 810 202.5 810 L 606.855469 810 C 718.714844 810 810 718.714844 810 606.855469 L 810 203.144531 C 810 91.285156 718.714844 0 606.855469 0 Z M 513.644531 405 L 437.144531 405 L 437.144531 655.714844 L 340.714844 655.714844 L 340.714844 405 L 289.285156 405 L 289.285156 302.144531 L 334.285156 302.144531 L 334.285156 258.429688 C 334.285156 217.285156 354.855469 152.355469 441.644531 152.355469 L 520.714844 152.355469 L 520.714844 237.855469 L 464.785156 237.855469 C 455.785156 237.855469 443.570312 243.644531 443.570312 263.570312 L 443.570312 302.144531 L 522.644531 302.144531 Z M 513.644531 405 " fill-opacity="1" fill-rule="nonzero"/></svg>