<svg xmlns="http://www.w3.org/2000/svg" xmlns:xlink="http://www.w3.org/1999/xlink" width="1080" zoomAndPan="magnify" viewBox="0 0 810 809.999993" height="1080" preserveAspectRatio="xMidYMid meet" version="1.0"><path fill="#000000" d="M 810 686.902344 C 810 754.789062 754.789062 810 686.902344 810 L 123.097656 810 C 55.210938 810 0 754.789062 0 686.902344 L 0 123.097656 C 0 55.210938 55.210938 0 123.097656 0 L 686.902344 0 C 754.789062 0 810 55.210938 810 123.097656 Z M 810 686.902344 " fill-opacity="1" fill-rule="nonzero"/><path fill="#ffffff" d="M 235.632812 179.578125 L 585.773438 179.578125 C 619.015625 179.578125 646.339844 206.761719 646.339844 240.140625 L 646.339844 590.28125 C 646.339844 623.519531 619.15625 650.703125 585.773438 650.703125 L 235.632812 650.703125 C 202.394531 650.703125 175.070312 623.519531 175.070312 590.28125 L 175.070312 240.140625 C 175.070312 206.761719 202.253906 179.578125 235.632812 179.578125 Z M 518.167969 231.972656 C 506.480469 231.972656 497.042969 241.550781 497.042969 253.238281 L 497.042969 304.085938 C 497.042969 315.773438 506.621094 325.351562 518.167969 325.351562 L 571.265625 325.351562 C 582.957031 325.351562 592.394531 315.773438 592.394531 304.085938 L 592.394531 253.238281 C 592.394531 241.550781 582.816406 231.972656 571.265625 231.972656 Z M 592.957031 378.875 L 551.550781 378.875 C 555.351562 391.832031 557.605469 405.210938 557.605469 419.296875 C 557.605469 497.605469 491.972656 561.125 411.265625 561.125 C 330.5625 561.125 264.929688 497.605469 264.929688 419.296875 C 264.929688 405.210938 267.042969 391.691406 270.984375 378.875 L 227.746094 378.875 L 227.746094 577.886719 C 227.746094 588.167969 236.195312 596.480469 246.480469 596.480469 L 574.507812 596.480469 C 584.789062 596.480469 593.238281 588.027344 593.238281 577.886719 Z M 410.984375 322.535156 C 358.875 322.535156 316.480469 363.660156 316.480469 414.226562 C 316.480469 464.789062 358.875 505.914062 410.984375 505.914062 C 463.238281 505.914062 505.492188 464.789062 505.492188 414.226562 C 505.632812 363.378906 463.378906 322.535156 410.984375 322.535156 Z M 410.984375 322.535156 " fill-opacity="1" fill-rule="nonzero"/></svg>