<svg xmlns="http://www.w3.org/2000/svg" xmlns:xlink="http://www.w3.org/1999/xlink" width="1080" zoomAndPan="magnify" viewBox="0 0 810 809.999993" height="1080" preserveAspectRatio="xMidYMid meet" version="1.0"><path fill="#000000" d="M 595.148438 0.316406 L 199.222656 0.316406 C 89.523438 0.316406 0 89.839844 0 199.539062 L 0 596.09375 C 0 705.160156 89.523438 794.683594 199.222656 794.683594 L 595.777344 794.683594 C 705.476562 794.683594 795 705.160156 795 595.460938 L 795 199.539062 C 794.371094 89.839844 704.84375 0.316406 595.148438 0.316406 Z M 264.789062 643.375 L 151.308594 643.375 L 151.308594 315.542969 L 264.789062 315.542969 Z M 207.417969 265.105469 C 175.265625 265.105469 149.417969 239.257812 149.417969 207.101562 C 149.417969 174.949219 175.265625 149.101562 207.417969 149.101562 C 239.570312 149.101562 265.421875 174.949219 265.421875 207.101562 C 264.789062 239.257812 238.941406 265.105469 207.417969 265.105469 Z M 643.0625 643.375 L 548.492188 643.375 L 548.492188 484.503906 C 548.492188 446.042969 543.449219 396.871094 491.121094 396.871094 C 437.535156 396.871094 428.707031 438.480469 428.707031 481.980469 L 428.707031 643.375 L 334.140625 643.375 L 334.140625 315.542969 L 422.402344 315.542969 L 422.402344 359.671875 L 424.925781 359.671875 C 438.792969 334.453125 470.949219 314.910156 521.382812 314.910156 C 625.410156 314.910156 643.691406 374.804688 643.691406 463.699219 L 643.691406 643.375 Z M 643.0625 643.375 " fill-opacity="1" fill-rule="nonzero"/></svg>