<svg xmlns="http://www.w3.org/2000/svg" xmlns:xlink="http://www.w3.org/1999/xlink" width="1080" zoomAndPan="magnify" viewBox="0 0 810 809.999993" height="1080" preserveAspectRatio="xMidYMid meet" version="1.0"><path fill="#000000" d="M 708.75 810 L 101.25 810 C 45.359375 810 0 764.640625 0 708.75 L 0 101.25 C 0 45.359375 45.359375 0 101.25 0 L 708.75 0 C 764.640625 0 810 45.359375 810 101.25 L 810 708.75 C 810 764.640625 764.640625 810 708.75 810 Z M 311.039062 610.738281 C 501.996094 610.738281 606.488281 452.386719 606.488281 315.292969 C 606.488281 310.835938 606.488281 306.382812 606.285156 301.925781 C 626.535156 287.347656 644.152344 268.921875 658.125 248.0625 C 639.496094 256.363281 619.449219 261.832031 598.386719 264.464844 C 619.851562 251.707031 636.253906 231.253906 644.152344 206.953125 C 624.105469 218.902344 601.828125 227.40625 578.136719 232.066406 C 559.101562 211.816406 532.171875 199.261719 502.402344 199.261719 C 445.09375 199.261719 398.519531 245.835938 398.519531 303.140625 C 398.519531 311.242188 399.53125 319.140625 401.152344 326.835938 C 314.886719 322.582031 238.34375 281.070312 187.109375 218.296875 C 178.199219 233.683594 173.136719 251.503906 173.136719 270.539062 C 173.136719 306.585938 191.566406 338.378906 219.308594 357.007812 C 202.296875 356.398438 186.300781 351.742188 172.328125 344.046875 C 172.328125 344.453125 172.328125 344.859375 172.328125 345.464844 C 172.328125 395.683594 208.171875 437.804688 255.554688 447.324219 C 246.847656 449.753906 237.734375 450.96875 228.21875 450.96875 C 221.535156 450.96875 215.054688 450.359375 208.777344 449.144531 C 221.941406 490.453125 260.414062 520.425781 305.773438 521.234375 C 270.136719 549.179688 225.382812 565.785156 176.78125 565.785156 C 168.480469 565.785156 160.175781 565.378906 152.078125 564.367188 C 197.84375 593.527344 252.515625 610.738281 311.039062 610.738281 " fill-opacity="1" fill-rule="nonzero"/></svg>